# xmcd
#
# Track frame offsets:
# 150
# 28642
# 48273
# 72054
# 94740
# 115335
# 136077
# 156167
# 182020
#
# Disc length: 2698 seconds
#
#
# Revision: 0
# Processed by: cddbd v1.5.1PL2 Copyright (c) Steve Scherf et al.
# Submitted via: FreeRIP 2.945 
#
DISCID=6e0a8809
DTITLE=Bobby Blackmon - Beautiful Bobby Blackmon
DYEAR=2001
DGENRE=
TTITLE0=I've Got Blues on My Mind
TTITLE1=We Don't Tell Motel
TTITLE2=Holdin' On to Sweet Memories
TTITLE3=I'm Dialin' 911
TTITLE4=I Don't Want You to Go
TTITLE5=Tryin' to Forget About Yesterday
TTITLE6=Give Me the Blues Any Ole Time
TTITLE7=I'm Headed for a Breakdown
TTITLE8=B. Y. O. B.
EXTD=
EXTT0=
EXTT1=
EXTT2=
EXTT3=
EXTT4=
EXTT5=
EXTT6=
EXTT7=
EXTT8=
PLAYORDER=
